<?xml version="1.0" standalone="no"?>
<!DOCTYPE svg PUBLIC "-//W3C//DTD SVG 1.1//EN" "http://www.w3.org/Graphics/SVG/1.1/DTD/svg11.dtd">

<svg width="986.0" height="160.0" viewBox="0 0 986.0 160.0" version="1.1" xmlns="http://www.w3.org/2000/svg" xmlns:xlink="http://www.w3.org/1999/xlink">
<!-- automatically generated by aafigure --><text x="3.0" y="28.900000000000002" font-family="sans-serif" font-size="14.0" fill="#000000" >
  act
</text>
<text x="465.0" y="28.900000000000002" font-family="sans-serif" font-size="14.0" fill="#000000" >
  mes_1
</text>
<text x="157.0" y="42.9" font-family="sans-serif" font-size="14.0" fill="#000000" >
  env
</text>
<text x="409.0" y="42.9" font-family="sans-serif" font-size="14.0" fill="#000000" >
  +
</text>
<text x="605.0" y="42.9" font-family="sans-serif" font-size="14.0" fill="#000000" >
  observer_1
</text>
<text x="941.0" y="42.9" font-family="sans-serif" font-size="14.0" fill="#000000" >
  =
</text>
<text x="283.0" y="56.9" font-family="sans-serif" font-size="14.0" fill="#000000" >
  obs_1
</text>
<text x="815.0" y="56.9" font-family="sans-serif" font-size="14.0" fill="#000000" >
  obs_2
</text>
<text x="3.0" y="112.89999999999999" font-family="sans-serif" font-size="14.0" fill="#000000" >
  act
</text>
<text x="283.0" y="112.89999999999999" font-family="sans-serif" font-size="14.0" fill="#000000" >
  mes_1
</text>
<text x="157.0" y="126.89999999999999" font-family="sans-serif" font-size="14.0" fill="#000000" >
  env
</text>
<text x="423.0" y="126.89999999999999" font-family="sans-serif" font-size="14.0" fill="#000000" >
  observer_1
</text>
<text x="283.0" y="140.9" font-family="sans-serif" font-size="14.0" fill="#000000" >
  obs_1
</text>
<text x="633.0" y="140.9" font-family="sans-serif" font-size="14.0" fill="#000000" >
  obs_1 + obs_2
</text>
<line x1="122.0" y1="10.0" x2="262.0" y2="10.0" stroke="#000000" stroke-width="2.0" />
<line x1="584.0" y1="10.0" x2="794.0" y2="10.0" stroke="#000000" stroke-width="2.0" />
<line x1="122.0" y1="10.0" x2="122.0" y2="38.0" stroke="#000000" stroke-width="2.0" />
<line x1="262.0" y1="10.0" x2="262.0" y2="38.0" stroke="#000000" stroke-width="2.0" />
<line x1="584.0" y1="10.0" x2="584.0" y2="38.0" stroke="#000000" stroke-width="2.0" />
<line x1="794.0" y1="10.0" x2="794.0" y2="38.0" stroke="#000000" stroke-width="2.0" />
<g>
    <line x1="122.0" y1="38.0" x2="111.5" y2="41.5" stroke="#000000" stroke-width="2.0" />
    <line x1="122.0" y1="38.0" x2="111.5" y2="34.5" stroke="#000000" stroke-width="2.0" />
    <line x1="3.0" y1="38.0" x2="122.0" y2="38.0" stroke="#000000" stroke-width="2.0" />
</g>
<g>
    <line x1="395.0" y1="38.0" x2="384.5" y2="41.5" stroke="#000000" stroke-width="2.0" />
    <line x1="395.0" y1="38.0" x2="384.5" y2="34.5" stroke="#000000" stroke-width="2.0" />
    <line x1="262.0" y1="38.0" x2="395.0" y2="38.0" stroke="#000000" stroke-width="2.0" />
</g>
<g>
    <line x1="584.0" y1="38.0" x2="573.5" y2="41.5" stroke="#000000" stroke-width="2.0" />
    <line x1="584.0" y1="38.0" x2="573.5" y2="34.5" stroke="#000000" stroke-width="2.0" />
    <line x1="465.0" y1="38.0" x2="584.0" y2="38.0" stroke="#000000" stroke-width="2.0" />
</g>
<g>
    <line x1="927.0" y1="38.0" x2="916.5" y2="41.5" stroke="#000000" stroke-width="2.0" />
    <line x1="927.0" y1="38.0" x2="916.5" y2="34.5" stroke="#000000" stroke-width="2.0" />
    <line x1="794.0" y1="38.0" x2="927.0" y2="38.0" stroke="#000000" stroke-width="2.0" />
</g>
<line x1="122.0" y1="38.0" x2="122.0" y2="66.0" stroke="#000000" stroke-width="2.0" />
<line x1="262.0" y1="38.0" x2="262.0" y2="66.0" stroke="#000000" stroke-width="2.0" />
<line x1="584.0" y1="38.0" x2="584.0" y2="66.0" stroke="#000000" stroke-width="2.0" />
<line x1="794.0" y1="38.0" x2="794.0" y2="66.0" stroke="#000000" stroke-width="2.0" />
<line x1="122.0" y1="66.0" x2="262.0" y2="66.0" stroke="#000000" stroke-width="2.0" />
<line x1="584.0" y1="66.0" x2="794.0" y2="66.0" stroke="#000000" stroke-width="2.0" />
<line x1="122.0" y1="94.0" x2="262.0" y2="94.0" stroke="#000000" stroke-width="2.0" />
<line x1="402.0" y1="94.0" x2="612.0" y2="94.0" stroke="#000000" stroke-width="2.0" />
<line x1="122.0" y1="94.0" x2="122.0" y2="122.0" stroke="#000000" stroke-width="2.0" />
<line x1="262.0" y1="94.0" x2="262.0" y2="122.0" stroke="#000000" stroke-width="2.0" />
<line x1="402.0" y1="94.0" x2="402.0" y2="122.0" stroke="#000000" stroke-width="2.0" />
<line x1="612.0" y1="94.0" x2="612.0" y2="122.0" stroke="#000000" stroke-width="2.0" />
<g>
    <line x1="122.0" y1="122.0" x2="111.5" y2="125.5" stroke="#000000" stroke-width="2.0" />
    <line x1="122.0" y1="122.0" x2="111.5" y2="118.5" stroke="#000000" stroke-width="2.0" />
    <line x1="3.0" y1="122.0" x2="122.0" y2="122.0" stroke="#000000" stroke-width="2.0" />
</g>
<g>
    <line x1="402.0" y1="122.0" x2="391.5" y2="125.5" stroke="#000000" stroke-width="2.0" />
    <line x1="402.0" y1="122.0" x2="391.5" y2="118.5" stroke="#000000" stroke-width="2.0" />
    <line x1="262.0" y1="122.0" x2="402.0" y2="122.0" stroke="#000000" stroke-width="2.0" />
</g>
<g>
    <line x1="857.0" y1="122.0" x2="846.5" y2="125.5" stroke="#000000" stroke-width="2.0" />
    <line x1="857.0" y1="122.0" x2="846.5" y2="118.5" stroke="#000000" stroke-width="2.0" />
    <line x1="612.0" y1="122.0" x2="857.0" y2="122.0" stroke="#000000" stroke-width="2.0" />
</g>
<line x1="122.0" y1="122.0" x2="122.0" y2="150.0" stroke="#000000" stroke-width="2.0" />
<line x1="262.0" y1="122.0" x2="262.0" y2="150.0" stroke="#000000" stroke-width="2.0" />
<line x1="402.0" y1="122.0" x2="402.0" y2="150.0" stroke="#000000" stroke-width="2.0" />
<line x1="612.0" y1="122.0" x2="612.0" y2="150.0" stroke="#000000" stroke-width="2.0" />
<line x1="122.0" y1="150.0" x2="262.0" y2="150.0" stroke="#000000" stroke-width="2.0" />
<line x1="402.0" y1="150.0" x2="612.0" y2="150.0" stroke="#000000" stroke-width="2.0" />
</svg>
