<?xml version="1.0" standalone="no"?>
<!DOCTYPE svg PUBLIC "-//W3C//DTD SVG 1.1//EN" "http://www.w3.org/Graphics/SVG/1.1/DTD/svg11.dtd">

<svg width="1378.0" height="244.0" viewBox="0 0 1378.0 244.0" version="1.1" xmlns="http://www.w3.org/2000/svg" xmlns:xlink="http://www.w3.org/1999/xlink">
<!-- automatically generated by aafigure --><text x="3.0" y="28.900000000000002" font-family="sans-serif" font-size="14.0" fill="#000000" >
  act_1
</text>
<text x="437.0" y="28.900000000000002" font-family="sans-serif" font-size="14.0" fill="#000000" >
  act_2
</text>
<text x="913.0" y="28.900000000000002" font-family="sans-serif" font-size="14.0" fill="#000000" >
  act_3
</text>
<text x="157.0" y="42.9" font-family="sans-serif" font-size="14.0" fill="#000000" >
  env
</text>
<text x="381.0" y="42.9" font-family="sans-serif" font-size="14.0" fill="#000000" >
  +
</text>
<text x="577.0" y="42.9" font-family="sans-serif" font-size="14.0" fill="#000000" >
  ctrl_1
</text>
<text x="857.0" y="42.9" font-family="sans-serif" font-size="14.0" fill="#000000" >
  +
</text>
<text x="1053.0" y="42.9" font-family="sans-serif" font-size="14.0" fill="#000000" >
  ctrl_2
</text>
<text x="1333.0" y="42.9" font-family="sans-serif" font-size="14.0" fill="#000000" >
  =
</text>
<text x="283.0" y="56.9" font-family="sans-serif" font-size="14.0" fill="#000000" >
  obs
</text>
<text x="731.0" y="56.9" font-family="sans-serif" font-size="14.0" fill="#000000" >
  cmd_1
</text>
<text x="1207.0" y="56.9" font-family="sans-serif" font-size="14.0" fill="#000000" >
  cmd_2
</text>
<text x="3.0" y="154.9" font-family="sans-serif" font-size="14.0" fill="#000000" >
  act_3
</text>
<text x="297.0" y="154.9" font-family="sans-serif" font-size="14.0" fill="#000000" >
  act_2
</text>
<text x="591.0" y="154.9" font-family="sans-serif" font-size="14.0" fill="#000000" >
  act_1
</text>
<text x="969.0" y="154.9" font-family="sans-serif" font-size="14.0" fill="#000000" >
  obs + cmd_1 + cmd_2
</text>
<text x="143.0" y="168.9" font-family="sans-serif" font-size="14.0" fill="#000000" >
  ctrl_2
</text>
<text x="437.0" y="168.9" font-family="sans-serif" font-size="14.0" fill="#000000" >
  ctrl_1
</text>
<text x="745.0" y="168.9" font-family="sans-serif" font-size="14.0" fill="#000000" >
  env
</text>
<text x="297.0" y="182.9" font-family="sans-serif" font-size="14.0" fill="#000000" >
  cmd_2
</text>
<text x="591.0" y="182.9" font-family="sans-serif" font-size="14.0" fill="#000000" >
  cmd_1
</text>
<text x="913.0" y="182.9" font-family="sans-serif" font-size="14.0" fill="#000000" >
  obs + cmd_1
</text>
<line x1="122.0" y1="10.0" x2="262.0" y2="10.0" stroke="#000000" stroke-width="2.0" />
<line x1="556.0" y1="10.0" x2="710.0" y2="10.0" stroke="#000000" stroke-width="2.0" />
<line x1="1032.0" y1="10.0" x2="1186.0" y2="10.0" stroke="#000000" stroke-width="2.0" />
<line x1="122.0" y1="10.0" x2="122.0" y2="38.0" stroke="#000000" stroke-width="2.0" />
<line x1="262.0" y1="10.0" x2="262.0" y2="38.0" stroke="#000000" stroke-width="2.0" />
<line x1="556.0" y1="10.0" x2="556.0" y2="38.0" stroke="#000000" stroke-width="2.0" />
<line x1="710.0" y1="10.0" x2="710.0" y2="38.0" stroke="#000000" stroke-width="2.0" />
<line x1="1032.0" y1="10.0" x2="1032.0" y2="38.0" stroke="#000000" stroke-width="2.0" />
<line x1="1186.0" y1="10.0" x2="1186.0" y2="38.0" stroke="#000000" stroke-width="2.0" />
<g>
    <line x1="122.0" y1="38.0" x2="111.5" y2="41.5" stroke="#000000" stroke-width="2.0" />
    <line x1="122.0" y1="38.0" x2="111.5" y2="34.5" stroke="#000000" stroke-width="2.0" />
    <line x1="3.0" y1="38.0" x2="122.0" y2="38.0" stroke="#000000" stroke-width="2.0" />
</g>
<g>
    <line x1="367.0" y1="38.0" x2="356.5" y2="41.5" stroke="#000000" stroke-width="2.0" />
    <line x1="367.0" y1="38.0" x2="356.5" y2="34.5" stroke="#000000" stroke-width="2.0" />
    <line x1="262.0" y1="38.0" x2="367.0" y2="38.0" stroke="#000000" stroke-width="2.0" />
</g>
<g>
    <line x1="556.0" y1="38.0" x2="545.5" y2="41.5" stroke="#000000" stroke-width="2.0" />
    <line x1="556.0" y1="38.0" x2="545.5" y2="34.5" stroke="#000000" stroke-width="2.0" />
    <line x1="437.0" y1="38.0" x2="556.0" y2="38.0" stroke="#000000" stroke-width="2.0" />
</g>
<g>
    <line x1="843.0" y1="38.0" x2="832.5" y2="41.5" stroke="#000000" stroke-width="2.0" />
    <line x1="843.0" y1="38.0" x2="832.5" y2="34.5" stroke="#000000" stroke-width="2.0" />
    <line x1="710.0" y1="38.0" x2="843.0" y2="38.0" stroke="#000000" stroke-width="2.0" />
</g>
<g>
    <line x1="1032.0" y1="38.0" x2="1021.5" y2="41.5" stroke="#000000" stroke-width="2.0" />
    <line x1="1032.0" y1="38.0" x2="1021.5" y2="34.5" stroke="#000000" stroke-width="2.0" />
    <line x1="913.0" y1="38.0" x2="1032.0" y2="38.0" stroke="#000000" stroke-width="2.0" />
</g>
<g>
    <line x1="1319.0" y1="38.0" x2="1308.5" y2="41.5" stroke="#000000" stroke-width="2.0" />
    <line x1="1319.0" y1="38.0" x2="1308.5" y2="34.5" stroke="#000000" stroke-width="2.0" />
    <line x1="1186.0" y1="38.0" x2="1319.0" y2="38.0" stroke="#000000" stroke-width="2.0" />
</g>
<line x1="122.0" y1="38.0" x2="122.0" y2="66.0" stroke="#000000" stroke-width="2.0" />
<line x1="262.0" y1="38.0" x2="262.0" y2="66.0" stroke="#000000" stroke-width="2.0" />
<line x1="556.0" y1="38.0" x2="556.0" y2="66.0" stroke="#000000" stroke-width="2.0" />
<line x1="710.0" y1="38.0" x2="710.0" y2="66.0" stroke="#000000" stroke-width="2.0" />
<line x1="1032.0" y1="38.0" x2="1032.0" y2="66.0" stroke="#000000" stroke-width="2.0" />
<line x1="1186.0" y1="38.0" x2="1186.0" y2="66.0" stroke="#000000" stroke-width="2.0" />
<line x1="122.0" y1="66.0" x2="262.0" y2="66.0" stroke="#000000" stroke-width="2.0" />
<line x1="556.0" y1="66.0" x2="710.0" y2="66.0" stroke="#000000" stroke-width="2.0" />
<line x1="1032.0" y1="66.0" x2="1186.0" y2="66.0" stroke="#000000" stroke-width="2.0" />
<line x1="206.0" y1="94.0" x2="948.0" y2="94.0" stroke="#000000" stroke-width="2.0" />
<g>
    <line x1="206.0" y1="136.0" x2="202.5" y2="125.5" stroke="#000000" stroke-width="2.0" />
    <line x1="206.0" y1="136.0" x2="209.5" y2="125.5" stroke="#000000" stroke-width="2.0" />
    <line x1="206.0" y1="94.0" x2="206.0" y2="136.0" stroke="#000000" stroke-width="2.0" />
</g>
<g>
    <circle cx="948.0" cy="164.0" r="3.5" stroke="#000000" stroke-width="2.0" fill="#000000" />    <line x1="948.0" y1="94.0" x2="948.0" y2="164.0" stroke="#000000" stroke-width="2.0" />
</g>
<line x1="122.0" y1="136.0" x2="206.0" y2="136.0" stroke="#000000" stroke-width="2.0" />
<line x1="206.0" y1="136.0" x2="276.0" y2="136.0" stroke="#000000" stroke-width="2.0" />
<line x1="416.0" y1="136.0" x2="570.0" y2="136.0" stroke="#000000" stroke-width="2.0" />
<line x1="710.0" y1="136.0" x2="850.0" y2="136.0" stroke="#000000" stroke-width="2.0" />
<line x1="122.0" y1="136.0" x2="122.0" y2="164.0" stroke="#000000" stroke-width="2.0" />
<line x1="276.0" y1="136.0" x2="276.0" y2="164.0" stroke="#000000" stroke-width="2.0" />
<line x1="416.0" y1="136.0" x2="416.0" y2="164.0" stroke="#000000" stroke-width="2.0" />
<line x1="570.0" y1="136.0" x2="570.0" y2="164.0" stroke="#000000" stroke-width="2.0" />
<line x1="710.0" y1="136.0" x2="710.0" y2="164.0" stroke="#000000" stroke-width="2.0" />
<line x1="850.0" y1="136.0" x2="850.0" y2="164.0" stroke="#000000" stroke-width="2.0" />
<g>
    <line x1="122.0" y1="164.0" x2="111.5" y2="167.5" stroke="#000000" stroke-width="2.0" />
    <line x1="122.0" y1="164.0" x2="111.5" y2="160.5" stroke="#000000" stroke-width="2.0" />
    <line x1="3.0" y1="164.0" x2="122.0" y2="164.0" stroke="#000000" stroke-width="2.0" />
</g>
<g>
    <line x1="416.0" y1="164.0" x2="405.5" y2="167.5" stroke="#000000" stroke-width="2.0" />
    <line x1="416.0" y1="164.0" x2="405.5" y2="160.5" stroke="#000000" stroke-width="2.0" />
    <line x1="276.0" y1="164.0" x2="416.0" y2="164.0" stroke="#000000" stroke-width="2.0" />
</g>
<g>
    <line x1="710.0" y1="164.0" x2="699.5" y2="167.5" stroke="#000000" stroke-width="2.0" />
    <line x1="710.0" y1="164.0" x2="699.5" y2="160.5" stroke="#000000" stroke-width="2.0" />
    <line x1="570.0" y1="164.0" x2="710.0" y2="164.0" stroke="#000000" stroke-width="2.0" />
</g>
<g>
    <circle cx="892.0" cy="164.0" r="3.5" stroke="#000000" stroke-width="2.0" fill="#000000" />    <line x1="850.0" y1="164.0" x2="892.0" y2="164.0" stroke="#000000" stroke-width="2.0" />
</g>
<g>
    <circle cx="892.0" cy="164.0" r="3.5" stroke="#000000" stroke-width="2.0" fill="#000000" />    <circle cx="948.0" cy="164.0" r="3.5" stroke="#000000" stroke-width="2.0" fill="#000000" />    <line x1="892.0" y1="164.0" x2="948.0" y2="164.0" stroke="#000000" stroke-width="2.0" />
</g>
<g>
    <circle cx="948.0" cy="164.0" r="3.5" stroke="#000000" stroke-width="2.0" fill="#000000" />    <line x1="1277.0" y1="164.0" x2="1266.5" y2="167.5" stroke="#000000" stroke-width="2.0" />
    <line x1="1277.0" y1="164.0" x2="1266.5" y2="160.5" stroke="#000000" stroke-width="2.0" />
    <line x1="948.0" y1="164.0" x2="1277.0" y2="164.0" stroke="#000000" stroke-width="2.0" />
</g>
<line x1="122.0" y1="164.0" x2="122.0" y2="192.0" stroke="#000000" stroke-width="2.0" />
<line x1="276.0" y1="164.0" x2="276.0" y2="192.0" stroke="#000000" stroke-width="2.0" />
<line x1="416.0" y1="164.0" x2="416.0" y2="192.0" stroke="#000000" stroke-width="2.0" />
<line x1="570.0" y1="164.0" x2="570.0" y2="192.0" stroke="#000000" stroke-width="2.0" />
<line x1="710.0" y1="164.0" x2="710.0" y2="192.0" stroke="#000000" stroke-width="2.0" />
<line x1="850.0" y1="164.0" x2="850.0" y2="192.0" stroke="#000000" stroke-width="2.0" />
<g>
    <circle cx="892.0" cy="164.0" r="3.5" stroke="#000000" stroke-width="2.0" fill="#000000" />    <line x1="892.0" y1="164.0" x2="892.0" y2="234.0" stroke="#000000" stroke-width="2.0" />
</g>
<line x1="122.0" y1="192.0" x2="276.0" y2="192.0" stroke="#000000" stroke-width="2.0" />
<line x1="416.0" y1="192.0" x2="500.0" y2="192.0" stroke="#000000" stroke-width="2.0" />
<line x1="500.0" y1="192.0" x2="570.0" y2="192.0" stroke="#000000" stroke-width="2.0" />
<line x1="710.0" y1="192.0" x2="850.0" y2="192.0" stroke="#000000" stroke-width="2.0" />
<g>
    <line x1="500.0" y1="192.0" x2="503.5" y2="202.5" stroke="#000000" stroke-width="2.0" />
    <line x1="500.0" y1="192.0" x2="496.5" y2="202.5" stroke="#000000" stroke-width="2.0" />
    <line x1="500.0" y1="192.0" x2="500.0" y2="234.0" stroke="#000000" stroke-width="2.0" />
</g>
<line x1="500.0" y1="234.0" x2="892.0" y2="234.0" stroke="#000000" stroke-width="2.0" />
</svg>
